<svg xmlns="http://www.w3.org/2000/svg" xmlns:xlink="http://www.w3.org/1999/xlink" xmlns:inkscape="http://www.inkscape.org/namespaces/inkscape" version="1.1" width="1756.48" height="433.772" viewBox="0 0 1756.48 433.772">
<defs>
<clipPath id="clip_0">
<path transform="matrix(1,0,0,-1,0,433.772)" d="M0 433.772H1756.485V0H0Z"/>
</clipPath>
</defs>
<g inkscape:groupmode="layer" inkscape:label="Layer 1">
<path transform="matrix(1,0,0,-1,0,433.772)" d="M0 0H1756.485V433.772H0Z"/>
<g clip-path="url(#clip_0)">
<path transform="matrix(1,0,0,-1,765.5209,155.9205)" d="M0 0C5.162-.08 7.116 3 7.332 7.655 7.559 12.534 3.817 12.667 .625 12.734-8.433 12.924-17.496 12.8-26.557 12.8-26.71 12.016-26.863 11.232-27.016 10.447-23.957 8.539-20.898 6.631-17.838 4.723-17.834 4.29-17.829 3.858-17.824 3.425H-67.897L-67.813 1.081C-45.209 .719-22.605 .351 0 0M-335.742-77.774C-333.065-61.187-324.251-48.441-311.453-37.963-289.684-20.14-265.244-8.628-237.067-5.62-236.307-5.539-235.532-5.427-234.812-5.185-233.732-4.823-232.694-4.334-231.807-2.588-253.831-5.223-275.928-7.373-297.864-10.61-329.454-15.273-359.172-26.048-387.854-39.899-390.387-41.122-394.311-42.119-396.479-41.024-415.188-31.577-435.107-32.528-455.1-33.193-487.737-34.278-520.381-35.143-553.026-37.004-539.145-37.004-525.265-37.005-511.385-37.004-485.824-37.002-460.26-37.207-434.703-36.908-422.178-36.762-411.304-41.417-401.166-45.87-402.685-49.351-404.931-52.235-405.065-55.215-405.524-65.429-403.437-67.472-393.391-66.879-378.829-66.018-364.292-64.73-349.743-63.646-347.649-63.489-345.546-63.449-342.18-63.298V-110.075C-341.807-110.056-341.434-110.038-341.061-110.02-339.285-99.272-337.478-88.529-335.742-77.774M-175.617 8.236C-174.29 8.354-172.714 10.253-172.011 11.703-170.938 13.915-170.544 16.453-169.83 18.842-165.757 32.469-152.453 35.815-141.765 33.785-137.099 32.899-132.331 31.746-128.06 29.749-119.315 25.661-117.455 17.256-116.43 8.023-110.702 8.023-105.173 8.018-99.644 8.024-83.115 8.04-66.585 8.012-50.056 8.101-42.763 8.14-41.43 9.919-45.903 15.587-53.109 24.717-60.233 34.507-69.363 41.413-95.672 61.314-125.842 72.856-158.39 78.209-162.271 78.847-165.54 78.242-166.951 74.401-174.692 53.331-182.26 32.197-189.846 11.071-190.087 10.402-189.877 9.571-189.877 8.071-185.085 8.071-180.321 7.814-175.617 8.236M-298.661 17.185C-331.145 12.119-362.934 4.89-392.552-10.143-389.664-9.388-386.768-8.66-383.888-7.873-380.744-7.014-377.615-6.096-374.478-5.213-338.135 5.012-301.01 10.366-263.386 12.586-249.591 13.4-235.797 14.261-221.992 14.834-216.507 15.062-213.801 17.899-212.019 22.717-205.964 39.084-199.727 55.384-193.529 71.698-192.167 75.282-190.592 78.788-189.281 82.389-188.222 85.296-188.738 87.2-192.503 87.22-234.333 87.441-276.164 88.017-317.993 87.875-338.32 87.805-358.64 85.895-378.969 85.767-407.552 85.586-433.556 77.194-457.095 61.697-479.186 47.154-500.445 31.349-522.11 16.156-523.794 14.975-525.789 14.24-527.639 13.298-526.995 12.381-526.351 11.464-525.707 10.548-450.183 17.608-374.486 17.963-298.661 17.185M-434.857-81.675C-434.87-79.538-435.9-77.171-437.089-75.317-442.063-67.56-446.94-59.695-452.58-52.435-454.663-49.752-458.707-47.125-461.929-47.034-482.081-46.468-502.256-46.398-522.419-46.594-559.128-46.949-595.834-47.936-632.541-47.926-643.277-47.923-651.234-50.842-657.753-59.532-662.908-66.404-669.645-72.07-675.086-78.754-677.432-81.636-679.541-85.712-679.607-89.285-680.012-111.383-679.662-133.493-679.897-155.596-679.957-161.302-676.446-160.454-673.073-160.454-614.443-160.454-555.814-160.441-497.184-160.43-478.73-160.426-460.276-160.42-441.823-160.416-439.362-160.415-436.901-160.416-434.759-160.416-434.759-133.495-434.706-107.584-434.857-81.675M-635.268-18.522C-610.894-2.097-583.117 3.486-554.792 6.905-543.83 8.229-535.185 13.09-526.533 19.587-508.127 33.406-489.374 46.831-470.118 59.431-452.949 70.666-435.465 82.23-415.046 86.41-397.638 89.974-379.79 91.781-362.044 93.234-305.287 97.883-248.446 96.904-191.633 94.341-159.987 92.914-129.941 84.73-101.642 70.489-78.447 58.817-58.346 42.832-39.968 24.67-35.126 19.885-30.089 17.447-23.171 17.816-12.432 18.388-1.656 18.29 9.105 18.391 19.092 18.485 21.331 16.894 25.339 7.92 27.252 3.637 26.732 .601 22.081-1.317 20.189-2.097 18.51-3.392 15.604-5.128 28.417-7.391 39.261-10.069 47.245-19.27 45.139-19.27 43.032-19.27 40.926-19.27-4.432-19.275-49.79-19.133-95.147-19.325-139.154-19.512-183.162-20.453-227.166-20.253-250.008-20.15-267.576-28.658-278.997-48.272-284.557-57.821-289.128-68.119-292.821-78.547-301.986-104.425-303.188-131.509-303.396-158.654-303.459-166.83-303.47-166.922-311.413-166.91-447.1-166.705-582.787-166.475-718.474-166.253-724.751-166.243-731.027-166.252-739.279-166.252-736.867-161.34-735.023-158.014-733.586-154.52-732.457-151.773-731.208-148.847-731.081-145.953-730.161-125.039-729.375-104.115-728.831-83.187-728.489-70.045-724.755-58.272-716.215-48.175-714.892-46.611-713.293-45.28-711.821-43.841-716.079-51.831-721.542-58.812-720.956-69.109-714.803-69.109-709.086-69.119-703.37-69.107-695.534-69.091-685.113-59.752-683.677-52.048-682.739-47.017-681.946-41.567-679.418-37.292-668.966-19.623-645.363-7.207-624.133-7.57-628.352-10.738-632.397-13.775-636.441-16.811-636.05-17.382-635.659-17.952-635.268-18.522" fill="#e8ad32"/>
<path transform="matrix(1,0,0,-1,1550.5657,326.0144)" d="M0 0V8.55C0 42.866-.176 77.183 .153 111.496 .216 118.018-1.75 119.943-8.018 119.394-14.04 118.867-20.147 119.395-26.211 119.247-29.469 119.167-30.722 120.468-30.633 123.681-30.494 128.699-30.49 133.726-30.632 138.744-30.723 141.967-29.434 143.181-26.207 143.174 4.342 143.107 34.892 143.094 65.441 143.182 69.167 143.193 70.103 141.474 70.003 138.181 69.863 133.582 69.817 128.969 70.013 124.374 70.173 120.625 68.787 119.097 64.934 119.228 58.664 119.441 52.36 118.958 46.111 119.377 40.801 119.732 39.421 117.773 39.451 112.631 39.651 77.898 39.556 43.163 39.551 8.429 39.55 .01 39.542 .005 30.951 .001 20.947-.004 10.943 0 0 0" fill="#e8ad32"/>
<path transform="matrix(1,0,0,-1,1058.9476,267.0589)" d="M0 0C-.134-3.027-.315-5.269-.319-7.512-.345-22.785-.414-38.059-.28-53.332-.246-57.137-1.077-59.136-5.462-59.027-15.29-58.784-25.129-58.85-34.961-59.002-38.665-59.059-40.136-57.856-40.127-53.954-40.027-9.598-40.032 34.758-40.121 79.114-40.129 82.882-38.897 84.313-35.062 84.242-25.231 84.06-15.391 84.014-5.564 84.264-1.273 84.373-.245 82.578-.279 78.685-.418 62.994-.334 47.302-.332 31.61-.332 29.333-.332 27.055-.332 23.929H41.476C41.476 16.498 41.715 9.879 41.258 3.309 41.175 2.107 38.284 .204 36.643 .154 26.818-.146 16.98 .002 7.146 0 4.905 0 2.663 0 0 0" fill="#ffffff"/>
<path transform="matrix(1,0,0,-1,1127.4374,182.9022)" d="M0 0C12.06 0 22.283 .148 32.493-.152 34.114-.199 36.25-1.908 37.181-3.438 57.649-37.025 77.987-70.692 98.31-104.368 99.045-105.586 99.818-107.042 99.833-108.395 99.954-119.662 99.902-130.932 99.902-143.053 92.575-143.053 85.722-143.287 78.906-142.881 77.313-142.786 75.38-140.814 74.391-139.218 50.606-100.79 26.576-62.503 3.592-23.599-.036-17.458 1.149-8.472 0 0" fill="#ffffff"/>
<path transform="matrix(1,0,0,-1,845.2761,254.8183)" d="M0 0C0-21.556-.167-43.113 .118-64.665 .189-70.007-1.559-71.493-6.676-71.294-15.87-70.937-25.092-71.044-34.295-71.259-38.413-71.355-39.719-69.841-39.709-65.78-39.605-21.623-39.605 22.535-39.711 66.692-39.721 70.88-38.133 72.1-34.153 72.013-24.74 71.807-15.311 71.715-5.906 72.046-1.128 72.214 .135 70.525 .092 65.922-.113 43.949 0 21.974 0 0" fill="#ffffff"/>
<path transform="matrix(1,0,0,-1,1332.4215,254.3273)" d="M0 0C11.587-1.672 11.587-1.672 11.587-12.62 11.587-16.329 11.587-20.039 11.587-23.6 0-25.793 0-25.793 0-37.932-.001-47.351-.145-56.772 .063-66.185 .151-70.183-1.093-71.839-5.278-71.748-14.901-71.537-24.536-71.504-34.156-71.759-38.693-71.879-39.802-70.019-39.787-65.81-39.665-31.278-39.793 3.256-39.577 37.788-39.559 40.588-38.209 43.961-36.346 46.065-29.689 53.578-22.559 60.672-15.577 67.894-12.686 70.885 .443 73.139 3.781 70.918 4.835 70.218 5.39 68.158 5.453 66.689 5.658 61.884 5.615 57.063 5.479 52.253 5.44 50.902 4.901 48.473 4.34 48.397-1.538 47.6 .063 43.191 .038 39.761-.057 26.618 0 13.473 0 0" fill="#e8ad32"/>
<path transform="matrix(1,0,0,-1,911.5956,254.6934)" d="M0 0C0 21.748 .153 43.497-.111 65.242-.175 70.529 1.547 72.118 6.69 71.921 15.877 71.569 25.092 71.661 34.287 71.892 38.452 71.997 39.677 70.403 39.668 66.397 39.57 22.275 39.564-21.848 39.67-65.971 39.68-70.101 38.223-71.468 34.183-71.381 24.778-71.178 15.359-71.116 5.957-71.402 1.249-71.546-.136-69.88-.092-65.242 .115-43.497 0-21.748 0 0" fill="#ffffff"/>
<path transform="matrix(1,0,0,-1,1445.6718,243.3804)" d="M0 0C.003-17.569-.013-35.138 .019-52.706 .025-55.503-.739-58.448 3.749-59.253 6.447-59.736 6.875-80.46 4.445-82.119 1.895-83.86-12.317-82.331-14.664-79.918-22.1-72.271-29.597-64.675-36.755-56.774-38.388-54.972-39.567-52.025-39.579-49.598-39.757-14.67-39.651 20.259-39.764 55.187-39.778 59.285-38.384 60.677-34.305 60.578-24.899 60.352-15.469 60.198-6.077 60.63-.688 60.878 .118 58.529 .072 53.96-.111 35.975-.003 17.987 0 0" fill="#e8ad32"/>
<path transform="matrix(1,0,0,-1,1506.836,241.50351)" d="M0 0C.001-16.743 .195-33.49-.17-50.225-.239-53.376-1.837-57.082-3.928-59.492-10.23-66.754-17.114-73.511-23.786-80.451-27.091-83.888-39.473-86.395-43.589-84.129-44.658-83.54-45.369-81.488-45.447-80.064-45.687-75.682-45.592-71.278-45.525-66.885-45.484-64.107-46.362-60.985-41.756-60.345-40.829-60.216-39.897-56.207-39.889-53.984-39.77-20.917-39.805 12.15-39.807 45.217-39.808 58.635-39.811 58.635-26.187 58.635-19.7 58.634-13.196 58.353-6.729 58.722-1.64 59.013 .214 57.488 .116 52.11-.199 34.745-.001 17.371 0 0" fill="#e8ad32"/>
<path transform="matrix(1,0,0,-1,1354.0629,326.0133)" d="M0 0V118.615C-6.406 118.697-6.762 122.779-6.182 127.455-6.106 128.073-6.172 128.708-6.171 129.336-6.17 143.858-6.162 143.97 8.232 143.017 10.46 142.87 13.004 141.607 14.673 140.069 18.818 136.253 22.095 131.398 26.521 128.005 37.582 119.526 40.05 108.673 39.616 95.174 38.67 65.719 39.22 36.212 39.422 6.728 39.457 1.667 38.182-.305 32.807-.112 22.186 .269 11.54 0 0 0" fill="#e8ad32"/>
<path transform="matrix(1,0,0,-1,1690.5292,207.27791)" d="M0 0C-5.611-.154-6.072 3.369-5.758 7.453-5.678 8.491-5.789 9.543-5.768 10.587-5.448 26.862-9.095 24.227 8.573 24.259 10.73 24.263 13.372 22.845 14.968 21.259 22.38 13.895 29.661 6.382 36.614-1.413 38.351-3.36 39.529-6.542 39.552-9.168 39.766-34.669 39.772-60.174 39.54-85.674 39.516-88.259 38.13-91.352 36.373-93.307 29.809-100.608 22.831-107.537 16.001-114.6 12.646-118.07 .38-120.635-3.739-118.379-4.805-117.795-5.524-115.732-5.586-114.314-5.806-109.306-5.76-104.281-5.611-99.268-5.572-97.95-4.891-95.56-4.35-95.515 1.308-95.045-.028-90.905-.023-87.605 .019-60.639 0-33.673 0-6.707 0-4.635 0-2.562 0 0" fill="#e8ad32"/>
<path transform="matrix(1,0,0,-1,965.9701,254.5216)" d="M0 0C0 14.014 .012 28.028-.012 42.042-.016 44.667 .656 47.613-3.501 48.125-4.359 48.23-5.586 50.195-5.618 51.331-5.778 56.971-5.653 62.622-5.475 68.264-5.446 69.182-4.881 70.355-4.174 70.93-1.767 72.885 12.476 71.37 14.86 68.905 22.276 61.238 29.755 53.623 36.881 45.692 38.497 43.894 39.548 40.908 39.566 38.46 39.756 12.734 39.762-12.994 39.554-38.719 39.535-41.128 38.262-44.023 36.623-45.835 29.753-53.434 22.539-60.723 15.415-68.09 12.603-70.997-.522-72.988-4.066-71.128-4.25-71.031-4.476-70.997-4.637-70.873-7.646-68.56-5.484-49.851-2.411-47.575-1.01-46.537-.127-43.943-.102-42.04 .087-28.029 0-14.014 0 0" fill="#ffffff"/>
<path transform="matrix(1,0,0,-1,734.8112,195.8947)" d="M0 0C-1.085-3.631 2.964-9.86-4.793-11.633-5.341-11.758-5.561-14.283-5.563-15.693-5.607-44.158-5.66-72.624-5.448-101.089-5.434-102.895-3.272-104.681-2.121-106.484-1.407-107.603-.151-108.715-.109-109.866 .099-115.509 .068-121.167-.1-126.813-.131-127.825-.966-129.238-1.842-129.727-5.556-131.8-18.178-129.568-21.211-126.453-28.073-119.405-35.113-112.511-41.623-105.149-43.609-102.903-45.095-99.348-45.128-96.374-45.401-71.26-45.38-46.141-45.153-21.027-45.127-18.188-43.995-14.734-42.152-12.648-35.226-4.814-27.817 2.595-20.536 10.111-18.093 12.633-4.16 14.524-1.541 12.521-.611 11.81-.174 10.068-.066 8.751 .154 6.048 0 3.315 0 0" fill="#ffffff"/>
<path transform="matrix(1,0,0,-1,1674.877,195.4367)" d="M0 0C-1.067-3.783 3.051-10.202-4.898-12.158-5.437-12.291-5.576-14.831-5.578-16.251-5.616-44.718-5.67-73.185-5.455-101.65-5.441-103.439-3.27-105.222-2.073-106.987-1.432-107.933-.173-108.818-.142-109.761 .047-115.615 .022-121.478-.083-127.336-.099-128.234-.677-129.407-1.382-129.956-3.926-131.936-17.895-130.294-20.401-127.733-27.722-120.255-35.132-112.852-42.143-105.09-43.895-103.15-45.132-99.979-45.155-97.361-45.375-71.827-45.375-46.289-45.152-20.755-45.129-18.133-43.866-14.969-42.112-13.013-35.129-5.226-27.748 2.206-20.461 9.717-18.068 12.185-3.91 13.989-1.439 12.046-.619 11.4-.144 9.936-.063 8.806 .132 6.099 0 3.369 0 0" fill="#e8ad32"/>
<path transform="matrix(1,0,0,-1,621.6834,325.3512)" d="M0 0C-9.775-1.134-18.946-2.771-25.094 6.881-25.535 7.575-26.137 8.226-26.8 8.71-42.801 20.39-47.617 35.926-45.742 55.465-44.072 72.866-45.598 90.558-45.207 108.111-45.133 111.452-43.415 115.355-41.21 117.935-35.244 124.916-28.616 131.331-22.235 137.957-18.538 141.797-6.579 144.418-2.033 142.137-1.062 141.65-.215 139.915-.181 138.73 .001 132.478-.095 126.218-.095 119.774-1.984 119.104-3.68 118.502-5.782 117.756-5.782 103.476-5.782 89.28-5.782 75.084-5.782 59.823-5.803 44.561-5.763 29.3-5.756 26.504-6.586 23.17-1.983 22.822-1.26 22.767-.111 21.128-.088 20.198 .077 13.561 0 6.919 0 0" fill="#ffffff"/>
<path transform="matrix(1,0,0,-1,790.1208,254.6534)" d="M0 0C0-12.541 .221-25.089-.163-37.618-.254-40.599-1.696-44.118-3.681-46.357-10.33-53.857-17.487-60.908-24.491-68.092-27.198-70.869-43.353-73.078-43.613-70.864-44.505-63.276-43.684-55.487-43.516-47.775-38.878-47.762-39.661-44.338-39.659-41.52-39.636-13.512-39.647 14.496-39.644 42.504-39.644 45.218-39.27 47.685-43.32 48.393-45.992 48.86-46.609 69.641-44.229 71.308-41.845 72.979-27.32 71.478-25.084 69.172-17.517 61.371-9.883 53.626-2.618 45.549-1.018 43.77-.161 40.73-.113 38.248 .132 25.502 0 12.75 0 0" fill="#ffffff"/>
<path transform="matrix(1,0,0,-1,1129.2592,222.2935)" d="M0 0C1.252-1.806 2.264-3.098 3.099-4.496 13.929-22.627 24.825-40.721 35.448-58.973 37.037-61.705 37.966-65.18 38.074-68.35 38.409-78.169 38.06-88.009 38.268-97.835 38.355-101.931 37.432-103.954 32.762-103.808 23.15-103.508 13.523-103.699 3.902-103.724 .985-103.731-1.472-103.62-1.456-99.546-1.328-66.922-1.314-34.298-1.233-1.675-1.232-1.367-.799-1.06 0 0" fill="#ffffff"/>
<path transform="matrix(1,0,0,-1,677.0254,256.6849)" d="M0 0C0-13.391 .122-26.091-.142-38.783-.178-40.535-1.88-42.48-3.238-43.938-9.935-51.131-16.761-58.204-23.571-65.291-26.891-68.746-39.218-71.186-43.328-68.904-44.386-68.317-45.083-66.276-45.152-64.863-45.38-60.273-45.212-55.665-45.251-51.064-45.275-48.278-45.578-45.497-41.428-45.352-40.751-45.328-39.59-43.608-39.574-42.656-39.428-34.128-39.489-25.597-39.489-16.637-43.404-16.395-46.668-16.194-50.791-15.939-50.791-11.474-51.001-7.177-50.642-2.929-50.552-1.872-48.627-.138-47.529-.126-31.911 .059-16.289 0 0 0" fill="#ffffff"/>
<path transform="matrix(1,0,0,-1,1225.64,267.70069)" d="M0 0C-1.167 1.868-2.371 3.713-3.495 5.607-12.985 21.592-22.458 37.587-31.942 53.576-38.454 64.552-39.525 70.549-37.187 84.747-25.316 84.747-13.279 84.837-1.25 84.575-.294 84.555 1.41 82.101 1.418 80.77 1.576 54.041 1.536 27.311 1.536 .581 1.024 .387 .512 .194 0 0" fill="#ffffff"/>
<path transform="matrix(1,0,0,-1,676.4083,235.4615)" d="M0 0H-38.461V28.032C-44.148 28.279-45.368 31.452-44.655 35.973-44.463 37.196-44.786 38.5-44.597 39.725-43.943 43.971-43.482 51.758-42.386 51.855-35.339 52.478-27.426 55.26-21.717 47.567-18.504 43.238-14.826 38.916-10.477 35.832 2.415 26.689 1.839 13.942 0 0" fill="#ffffff"/>
<path transform="matrix(1,0,0,-1,855.6053,325.9534)" d="M0 0V23.708C13.595 23.708 26.876 23.779 40.152 23.571 41.183 23.555 43.006 21.634 43.061 20.529 43.35 14.696 43.351 8.832 43.04 3.001 42.984 1.948 41.022 .147 39.918 .13 26.812-.072 13.703 0 0 0" fill="#ffffff"/>
<path transform="matrix(1,0,0,-1,1090.7925,206.72641)" d="M0 0C-5.627-.001-11.263 .197-16.877-.067-21.072-.264-22.124 1.494-22.22 5.441-22.665 23.86-22.769 23.858-4.223 23.857 2.446 23.857 9.125 23.625 15.78 23.936 20.279 24.146 21.665 22.345 21.422 18.11 21.16 13.54 21.254 8.942 21.37 4.36 21.452 1.132 20.045-.102 16.879-.033 11.255 .09 5.627 .001 0 0" fill="#ffffff"/>
<path transform="matrix(1,0,0,-1,1112.0872,302.1856)" d="M0 0C0-7.416 .171-14.044-.167-20.646-.224-21.755-2.469-23.635-3.732-23.66-15.604-23.893-27.486-23.936-39.355-23.621-40.743-23.584-42.073-21.064-43.405-19.672-43.511-19.562-43.419-19.268-43.431-19.06-44.548 0-44.548 0-25.573 0Z" fill="#ffffff"/>
<path transform="matrix(1,0,0,-1,0,433.772)" d="M1227.181 83.24H26.243042V59.428998H1227.181Z" fill="#e8ad32"/>
</g>
</g>
</svg>
